<?xml version="1.0" standalone="no"?>
<!DOCTYPE svg PUBLIC "-//W3C//DTD SVG 20010904//EN"
 "http://www.w3.org/TR/2001/REC-SVG-20010904/DTD/svg10.dtd">
<svg version="1.0" xmlns="http://www.w3.org/2000/svg"
 width="1000.000000pt" height="1000.000000pt" viewBox="0 0 1000.000000 1000.000000"
 preserveAspectRatio="xMidYMid meet">
<metadata>
Created by potrace 1.14, written by Peter Selinger 2001-2017
</metadata>
<g transform="translate(0.000000,1000.000000) scale(0.100000,-0.100000)"
fill="#000000" stroke="none">
<path d="M4135 9986 c-62 -20 -101 -43 -141 -84 -50 -51 -62 -79 -134 -297
-165 -506 -202 -619 -236 -727 -28 -86 -43 -119 -58 -126 -12 -6 -61 -26 -111
-45 -49 -20 -129 -53 -176 -75 l-86 -40 -184 95 c-719 368 -787 402 -837 411
-65 12 -108 7 -178 -19 -62 -23 -57 -19 -539 -513 -165 -170 -344 -354 -399
-410 -54 -55 -109 -114 -121 -131 -35 -47 -57 -115 -60 -180 -4 -96 -16 -64
220 -550 65 -132 153 -314 197 -404 l79 -164 -49 -116 c-27 -64 -64 -155 -82
-203 -29 -78 -36 -89 -64 -97 -17 -5 -157 -53 -311 -106 -154 -53 -307 -105
-340 -116 -33 -10 -67 -22 -75 -26 -8 -3 -19 -7 -25 -8 -51 -13 -238 -84 -268
-102 -54 -34 -95 -80 -125 -143 l-27 -55 -2 -735 c-3 -665 -1 -740 14 -787 22
-68 77 -140 133 -175 42 -26 254 -101 834 -297 l229 -77 19 -55 c25 -70 95
-242 120 -297 25 -52 37 -18 -155 -412 -343 -702 -319 -648 -322 -729 -4 -101
30 -185 108 -266 161 -166 578 -593 747 -765 238 -243 255 -254 387 -255 l81
0 179 91 c231 117 637 326 733 376 85 45 76 46 225 -21 44 -21 119 -52 166
-71 82 -33 86 -36 98 -74 21 -70 250 -775 292 -900 57 -169 99 -224 207 -274
l55 -25 355 -1 c194 -1 357 1 361 4 3 3 7 152 6 332 l0 328 -208 2 -209 3 -18
50 c-10 28 -64 192 -120 365 -56 173 -120 370 -142 438 -64 197 -111 243 -319
314 -166 57 -317 121 -478 204 l-123 63 -84 -2 -83 -2 -168 -85 c-92 -47 -297
-152 -455 -233 l-288 -148 -179 183 c-98 101 -231 236 -294 302 l-115 118 45
92 c25 50 83 168 128 261 46 94 126 258 178 367 144 295 145 315 22 572 -93
195 -137 305 -189 476 -31 101 -66 157 -128 205 -46 36 -186 87 -815 298
l-183 62 0 426 0 426 43 16 c23 9 136 48 252 87 655 223 659 224 680 242 83
68 121 123 145 213 7 28 16 55 19 60 3 6 6 15 7 20 4 18 64 185 73 203 5 9 19
42 31 72 12 30 50 111 83 180 55 113 62 132 65 201 5 86 -8 131 -68 249 -21
41 -80 161 -130 265 -51 105 -128 263 -171 352 -44 88 -79 167 -79 174 0 7 53
67 119 133 65 67 196 200 290 296 l171 175 192 -98 c106 -54 312 -159 458
-233 353 -179 343 -179 622 -39 93 46 168 82 168 79 0 -2 17 4 38 14 20 11
105 43 187 72 181 63 238 101 284 190 16 29 204 595 297 893 27 84 29 87 58
88 17 1 111 2 209 2 97 1 178 3 178 6 1 4 2 153 3 334 l1 327 -350 -1 c-253 0
-361 -4 -390 -13z"/>
<path d="M5468 9983 c-3 -7 -2 -3118 1 -3133 1 -4 691 -6 1534 -6 l1532 0 1
-687 1 -687 -46 -1 c-25 0 -715 0 -1533 -1 -819 0 -1488 -3 -1489 -7 -1 -3 -2
-246 -2 -539 -1 -348 1 -532 8 -533 6 0 816 -2 1800 -2 985 -1 1795 -5 1800
-9 7 -4 9 -257 8 -730 0 -397 -2 -726 -2 -729 -1 -4 -805 -7 -1788 -7 -984 -1
-1797 -1 -1808 -1 -20 -1 -20 -7 -19 -399 1 -218 2 -408 3 -422 l1 -26 1403 0
1402 0 0 -737 1 -737 -1403 0 c-772 0 -1403 -3 -1404 -7 -1 -5 -2 -137 -2
-296 l-2 -287 1940 2 1940 3 0 290 0 290 -273 3 -272 2 0 734 c0 578 3 735 13
738 6 2 128 3 270 3 225 -1 257 1 258 14 1 9 2 65 3 124 1 69 5 110 13 115 6
4 153 7 327 6 l316 -1 0 294 c0 272 -1 293 -17 294 -10 0 -98 0 -195 0 l-178
-1 -1 28 c0 37 -1 1244 0 1358 l1 91 195 -1 195 -1 -2 295 -3 295 -200 1
c-110 1 -204 2 -210 3 -6 1 -10 93 -11 254 l-1 252 -45 95 c-144 301 -264 553
-368 775 -21 44 -64 134 -95 200 -82 172 -126 269 -128 279 -1 6 131 10 323
11 179 1 330 3 336 4 8 1 11 112 12 394 l0 394 -305 419 c-167 230 -327 450
-356 489 -29 38 -54 74 -57 80 -3 5 -37 53 -76 105 -39 52 -261 357 -493 678
l-423 582 -1213 0 c-668 0 -1215 -3 -1217 -7z"/>
<path d="M4727 7333 c-1 0 -29 -3 -62 -6 -224 -20 -452 -79 -672 -173 -49 -21
-103 -46 -122 -57 -19 -10 -57 -31 -83 -45 -215 -118 -427 -289 -597 -482
-150 -171 -273 -357 -360 -545 -23 -49 -48 -103 -56 -120 -14 -29 -57 -158
-90 -263 -17 -56 -66 -288 -63 -300 1 -4 -2 -27 -5 -52 -17 -113 -23 -353 -13
-455 3 -27 8 -72 10 -100 37 -406 226 -865 495 -1200 137 -172 247 -276 476
-453 38 -29 191 -121 268 -161 205 -106 439 -184 647 -217 19 -3 42 -7 50 -9
25 -7 171 -18 250 -19 l75 -1 0 327 c0 179 -2 328 -5 331 -3 2 -48 7 -100 11
-242 17 -405 61 -615 167 -360 179 -638 485 -789 867 -36 92 -79 244 -90 318
-4 22 -9 51 -12 64 -11 43 -13 392 -4 458 22 144 34 195 71 312 141 435 454
796 854 985 175 83 387 138 576 150 52 4 99 8 104 10 7 1 10 116 9 326 -1 178
-2 326 -3 329 -1 5 -139 8 -144 3z"/>
</g>
</svg>
